<?xml version="1.0" encoding="UTF-8" standalone="no"?>
<svg
   xmlns:dc="http://purl.org/dc/elements/1.1/"
   xmlns:cc="http://creativecommons.org/ns#"
   xmlns:rdf="http://www.w3.org/1999/02/22-rdf-syntax-ns#"
   xmlns:svg="http://www.w3.org/2000/svg"
   xmlns="http://www.w3.org/2000/svg"
   xmlns:xlink="http://www.w3.org/1999/xlink"
   xmlns:sodipodi="http://sodipodi.sourceforge.net/DTD/sodipodi-0.dtd"
   xmlns:inkscape="http://www.inkscape.org/namespaces/inkscape"
   width="0.365384in"
   height="0.365384in"
   viewBox="0 0 32 32"
   id="svg2"
   version="1.1"
   inkscape:version="0.48.2 r9819"
   sodipodi:docname="logo.svg">
  <metadata
     id="metadata9">
    <rdf:RDF>
      <cc:Work
         rdf:about="">
        <dc:format>image/svg+xml</dc:format>
        <dc:type
           rdf:resource="http://purl.org/dc/dcmitype/StillImage" />
        <dc:title />
        <dc:date>2012-11-20</dc:date>
        <dc:creator>
          <cc:Agent>
            <dc:title>Marcel Klehr</dc:title>
          </cc:Agent>
        </dc:creator>
        <cc:license
           rdf:resource="http://creativecommons.org/licenses/by-sa/3.0/" />
      </cc:Work>
      <cc:License
         rdf:about="http://creativecommons.org/licenses/by-sa/3.0/">
        <cc:permits
           rdf:resource="http://creativecommons.org/ns#Reproduction" />
        <cc:permits
           rdf:resource="http://creativecommons.org/ns#Distribution" />
        <cc:requires
           rdf:resource="http://creativecommons.org/ns#Notice" />
        <cc:requires
           rdf:resource="http://creativecommons.org/ns#Attribution" />
        <cc:permits
           rdf:resource="http://creativecommons.org/ns#DerivativeWorks" />
        <cc:requires
           rdf:resource="http://creativecommons.org/ns#ShareAlike" />
      </cc:License>
    </rdf:RDF>
  </metadata>
  <defs
     id="defs7">
    <filter
       inkscape:collect="always"
       id="filter3965"
       x="-0.10407905"
       width="1.2081581"
       y="-0.062811365"
       height="1.1256227">
      <feGaussianBlur
         inkscape:collect="always"
         stdDeviation="0.85337489"
         id="feGaussianBlur3967" />
    </filter>
  </defs>
  <sodipodi:namedview
     pagecolor="#ffffff"
     bordercolor="#666666"
     borderopacity="1"
     objecttolerance="10"
     gridtolerance="10"
     guidetolerance="10"
     inkscape:pageopacity="0"
     inkscape:pageshadow="2"
     inkscape:window-width="1600"
     inkscape:window-height="838"
     id="namedview5"
     showgrid="false"
     inkscape:zoom="9.58"
     inkscape:cx="19.111428"
     inkscape:cy="18.967947"
     inkscape:window-x="-8"
     inkscape:window-y="-8"
     inkscape:window-maximized="1"
     inkscape:current-layer="svg2" />
  <path
     id="Unbenannt #2"
     d="M 24.89,26.56 17.491186,21.491187 7.8122884,26.127305 M 10.626305,20.568424 16.33,24 22.11,20.89 M 13.44,15.321576 16.33,17 l 3,-1.886239 m -3,-6.3494374 1.18678,12.7268624 M 16.229604,9.0335593 7.5503221,26.195338 16.052119,31.22 16.22,5.67 16.194407,8.9817886 24.89,26.56 16.052118,31.118424 M 11.33,6.11 c -0.33,-6.44 9.45,-8 10,-0.22"
     style="fill:none;stroke:#123f0f;stroke-width:1.00034785;stroke-linecap:round;stroke-linejoin:round;stroke-miterlimit:4;stroke-opacity:1;stroke-dasharray:none"
     inkscape:connector-curvature="0"
     sodipodi:nodetypes="cccccccccccccccccccc" />
  <path
     sodipodi:type="arc"
     style="fill:#b3b3b3;fill-opacity:1;stroke:#123f0f;stroke-width:0.76058519;stroke-linecap:round;stroke-linejoin:round;stroke-miterlimit:4;stroke-opacity:1;stroke-dasharray:none"
     id="path3756"
     sodipodi:cx="7.1760798"
     sodipodi:cy="10.032578"
     sodipodi:rx="0.34835339"
     sodipodi:ry="0.41802406"
     d="m 7.4198294,9.7339347 a 0.34835339,0.41802406 0 1 1 -0.00817,-0.0093"
     transform="matrix(1.3332447,0,0,1.2974677,6.6359195,-7.7288099)"
     sodipodi:start="5.4873938"
     sodipodi:end="11.738253"
     sodipodi:open="true" />
  <use
     id="use3758"
     xlink:href="#Unbenannt #2"
     x="0"
     y="0"
     width="32"
     height="32"
     transform="translate(-2.2361315,0.71700515)" />
  <use
     id="use3760"
     xlink:href="#Unbenannt #2"
     x="0"
     y="0"
     width="32"
     height="32"
     transform="translate(-3.7233886,2.6380775)" />
  <use
     id="use3762"
     xlink:href="#Unbenannt #2"
     x="0"
     y="0"
     width="32"
     height="32"
     transform="translate(-5.399585,-1.6199441)" />
  <use
     id="use3764"
     xlink:href="#Unbenannt #2"
     x="0"
     y="0"
     width="32"
     height="32"
     transform="translate(-7.1627493,1.9515707)" />
  <use
     id="use3766"
     xlink:href="#Unbenannt #2"
     x="0"
     y="0"
     width="32"
     height="32"
     transform="translate(-0.65650218,7.2442212)" />
  <use
     id="use3768"
     xlink:href="#Unbenannt #2"
     x="0"
     y="0"
     width="32"
     height="32"
     transform="translate(-0.57523937,4.2988661)" />
  <use
     id="use3770"
     xlink:href="#Unbenannt #2"
     x="0"
     y="0"
     width="32"
     height="32"
     transform="translate(-4.3442441,10.1956)" />
  <use
     id="use3772"
     xlink:href="#Unbenannt #2"
     x="0"
     y="0"
     width="32"
     height="32"
     transform="translate(-1.9780471,7.2315833)" />
  <use
     id="use3774"
     xlink:href="#Unbenannt #2"
     x="0"
     y="0"
     width="32"
     height="32"
     transform="translate(-0.1145676,15.229341)" />
  <use
     id="use3776"
     xlink:href="#Unbenannt #2"
     x="0"
     y="0"
     width="32"
     height="32"
     transform="translate(-4.1019129,15.906296)" />
  <use
     id="use3778"
     xlink:href="#Unbenannt #2"
     x="0"
     y="0"
     width="32"
     height="32"
     transform="translate(3.1433958,20.804108)" />
  <use
     id="use3780"
     xlink:href="#Unbenannt #2"
     x="0"
     y="0"
     width="32"
     height="32"
     transform="translate(-0.85273909,20.635128)" />
  <use
     id="use3782"
     xlink:href="#Unbenannt #2"
     x="0"
     y="0"
     width="32"
     height="32"
     transform="translate(0.74405816,15.212628)" />
  <use
     id="use3784"
     xlink:href="#Unbenannt #2"
     x="0"
     y="0"
     width="32"
     height="32"
     transform="translate(1.7502524,22.756374)" />
  <use
     id="use3786"
     xlink:href="#Unbenannt #2"
     x="0"
     y="0"
     width="32"
     height="32"
     transform="translate(-1.0469749,17.501734)" />
  <use
     id="use3788"
     xlink:href="#Unbenannt #2"
     x="0"
     y="0"
     width="32"
     height="32"
     transform="translate(5.5240156,17.373795)" />
  <use
     id="use3790"
     xlink:href="#Unbenannt #2"
     x="0"
     y="0"
     width="32"
     height="32"
     transform="translate(1.8503019,16.837383)" />
  <use
     id="use3792"
     xlink:href="#Unbenannt #2"
     x="0"
     y="0"
     width="32"
     height="32"
     transform="translate(7.1740094,18.866418)" />
  <use
     id="use3794"
     xlink:href="#Unbenannt #2"
     x="0"
     y="0"
     width="32"
     height="32"
     transform="translate(9.1115527,22.260098)" />
  <use
     id="use3796"
     xlink:href="#Unbenannt #2"
     x="0"
     y="0"
     width="32"
     height="32"
     transform="translate(8.5355471,18.475757)" />
  <use
     id="use3798"
     xlink:href="#Unbenannt #2"
     x="0"
     y="0"
     width="32"
     height="32"
     transform="translate(15.038576,18.161814)" />
  <use
     id="use3800"
     xlink:href="#Unbenannt #2"
     x="0"
     y="0"
     width="32"
     height="32"
     transform="translate(15.222943,18.051762)" />
  <use
     id="use3802"
     xlink:href="#Unbenannt #2"
     x="0"
     y="0"
     width="32"
     height="32"
     transform="translate(14.094791,15.554741)" />
  <use
     id="use3804"
     xlink:href="#Unbenannt #2"
     x="0"
     y="0"
     width="32"
     height="32"
     transform="translate(14.308118,16.894596)" />
  <use
     id="use3806"
     xlink:href="#Unbenannt #2"
     x="0"
     y="0"
     width="32"
     height="32"
     transform="translate(11.595625,12.358092)" />
  <use
     id="use3808"
     xlink:href="#Unbenannt #2"
     x="0"
     y="0"
     width="32"
     height="32"
     transform="translate(14.772817,13.423847)" />
  <use
     id="use3810"
     xlink:href="#Unbenannt #2"
     x="0"
     y="0"
     width="32"
     height="32"
     transform="translate(12.662643,15.889329)" />
  <use
     id="use3812"
     xlink:href="#Unbenannt #2"
     x="0"
     y="0"
     width="32"
     height="32"
     transform="translate(13.95424,12.112059)" />
  <use
     id="use3814"
     xlink:href="#Unbenannt #2"
     x="0"
     y="0"
     width="32"
     height="32"
     transform="translate(14.364894,13.895914)" />
  <use
     id="use3816"
     xlink:href="#Unbenannt #2"
     x="0"
     y="0"
     width="32"
     height="32"
     transform="translate(13.636005,17.132607)" />
  <use
     id="use3818"
     xlink:href="#Unbenannt #2"
     x="0"
     y="0"
     width="32"
     height="32"
     transform="translate(13.220918,15.939904)" />
  <use
     id="use3820"
     xlink:href="#Unbenannt #2"
     x="0"
     y="0"
     width="32"
     height="32"
     transform="translate(13.172202,13.13075)" />
  <use
     id="use3822"
     xlink:href="#Unbenannt #2"
     x="0"
     y="0"
     width="32"
     height="32"
     transform="translate(8.4527812,5.8436661)" />
  <use
     id="use3824"
     xlink:href="#Unbenannt #2"
     x="0"
     y="0"
     width="32"
     height="32"
     transform="translate(5.652279,11.035684)" />
  <use
     id="use3826"
     xlink:href="#Unbenannt #2"
     x="0"
     y="0"
     width="32"
     height="32"
     transform="translate(6.7498621,6.8189725)" />
  <use
     id="use3828"
     xlink:href="#Unbenannt #2"
     x="0"
     y="0"
     width="32"
     height="32"
     transform="translate(7.6120442,7.3586065)" />
  <use
     id="use3830"
     xlink:href="#Unbenannt #2"
     x="0"
     y="0"
     width="32"
     height="32"
     transform="translate(8.6566401,8.0175235)" />
  <use
     id="use3832"
     xlink:href="#Unbenannt #2"
     x="0"
     y="0"
     width="32"
     height="32"
     transform="translate(3.9089178,3.2633462)" />
  <use
     id="use3834"
     xlink:href="#Unbenannt #2"
     x="0"
     y="0"
     width="32"
     height="32"
     transform="translate(-3.1764117,4.6058631)" />
  <use
     id="use3836"
     xlink:href="#Unbenannt #2"
     x="0"
     y="0"
     width="32"
     height="32"
     transform="translate(-7.8039484,5.1766585)" />
  <use
     id="use3838"
     xlink:href="#Unbenannt #2"
     x="0"
     y="0"
     width="32"
     height="32"
     transform="translate(-7.2810862,5.3852142)" />
  <use
     id="use3840"
     xlink:href="#Unbenannt #2"
     x="0"
     y="0"
     width="32"
     height="32"
     transform="translate(-14.453578,2.6631972)" />
  <use
     id="use3842"
     xlink:href="#Unbenannt #2"
     x="0"
     y="0"
     width="32"
     height="32"
     transform="translate(-20.282452,-3.980905)" />
  <use
     id="use3844"
     xlink:href="#Unbenannt #2"
     x="0"
     y="0"
     width="32"
     height="32"
     transform="translate(-25.142601,-11.429333)" />
  <use
     id="use3846"
     xlink:href="#Unbenannt #2"
     x="0"
     y="0"
     width="32"
     height="32"
     transform="translate(-31.942304,-18.509631)" />
  <use
     id="use3848"
     xlink:href="#Unbenannt #2"
     x="0"
     y="0"
     width="32"
     height="32"
     transform="translate(-47.173755,-25.87193)" />
  <use
     id="use3850"
     xlink:href="#Unbenannt #2"
     x="0"
     y="0"
     width="32"
     height="32"
     transform="translate(-46.582583,-24.164286)" />
  <path
     sodipodi:nodetypes="ccccccc"
     inkscape:connector-curvature="0"
     style="fill:none;stroke:#123f0f;stroke-width:1.08188093;stroke-linecap:round;stroke-linejoin:round;stroke-miterlimit:4;stroke-opacity:1;stroke-dasharray:none;marker-start:none;filter:url(#filter3965)"
     d="M 26.110341,26.927957 17.858654,21.521939 6.4976276,26.791478 m -0.065593,0.289227 10.3880944,4.817261 C 12.647037,13.448407 13.961558,29.16373 26.110344,26.927957 l -9.290213,4.970009"
     id="path3879"
     transform="matrix(0.9088834,0,0,0.94066507,1.3545026,1.3692797)" />
</svg>
